<mxfile host="app.diagrams.net" agent="Mozilla/5.0 (Windows NT 10.0; Win64; x64) AppleWebKit/537.36 (KHTML, like Gecko) Chrome/131.0.0.0 Safari/537.36 Edg/131.0.0.0" version="25.0.3">
  <diagram name="StrÃ¡nka-1" id="EVxR3ctEMm_QV-ffG0Ox">
    <mxGraphModel dx="1086" dy="696" grid="1" gridSize="10" guides="1" tooltips="1" connect="1" arrows="1" fold="1" page="1" pageScale="1" pageWidth="827" pageHeight="1169" math="0" shadow="0">
      <root>
        <mxCell id="0" />
        <mxCell id="1" parent="0" />
        <mxCell id="j2wSv_mhDDOv_lIF8v3o-17" value="Rest" style="html=1;rounded=0;" parent="1" vertex="1">
          <mxGeometry x="710" y="680" width="80" height="55" as="geometry" />
        </mxCell>
        <mxCell id="j2wSv_mhDDOv_lIF8v3o-18" value="" style="endArrow=none;html=1;rounded=0;align=center;verticalAlign=top;endFill=0;labelBackgroundColor=none;endSize=2;" parent="1" source="j2wSv_mhDDOv_lIF8v3o-19" edge="1">
          <mxGeometry relative="1" as="geometry">
            <mxPoint x="750" y="650" as="targetPoint" />
          </mxGeometry>
        </mxCell>
        <mxCell id="j2wSv_mhDDOv_lIF8v3o-20" value="" style="endArrow=none;html=1;rounded=0;align=center;verticalAlign=top;endFill=0;labelBackgroundColor=none;endSize=2;" parent="1" source="j2wSv_mhDDOv_lIF8v3o-17" target="j2wSv_mhDDOv_lIF8v3o-19" edge="1">
          <mxGeometry relative="1" as="geometry">
            <mxPoint x="750" y="665" as="sourcePoint" />
            <mxPoint x="750" y="650" as="targetPoint" />
          </mxGeometry>
        </mxCell>
        <mxCell id="j2wSv_mhDDOv_lIF8v3o-19" value="" style="ellipse;html=1;fontSize=11;align=center;fillColor=none;points=[];aspect=fixed;resizable=0;verticalAlign=bottom;labelPosition=center;verticalLabelPosition=top;flipH=1;" parent="1" vertex="1">
          <mxGeometry x="746" y="650" width="8" height="8" as="geometry" />
        </mxCell>
        <mxCell id="j2wSv_mhDDOv_lIF8v3o-21" value="Rest" style="html=1;rounded=0;" parent="1" vertex="1">
          <mxGeometry x="600" y="680" width="80" height="55" as="geometry" />
        </mxCell>
        <mxCell id="j2wSv_mhDDOv_lIF8v3o-22" value="" style="endArrow=none;html=1;rounded=0;align=center;verticalAlign=top;endFill=0;labelBackgroundColor=none;endSize=2;" parent="1" source="j2wSv_mhDDOv_lIF8v3o-24" edge="1">
          <mxGeometry relative="1" as="geometry">
            <mxPoint x="640" y="650" as="targetPoint" />
          </mxGeometry>
        </mxCell>
        <mxCell id="j2wSv_mhDDOv_lIF8v3o-23" value="" style="endArrow=none;html=1;rounded=0;align=center;verticalAlign=top;endFill=0;labelBackgroundColor=none;endSize=2;" parent="1" source="j2wSv_mhDDOv_lIF8v3o-21" target="j2wSv_mhDDOv_lIF8v3o-24" edge="1">
          <mxGeometry relative="1" as="geometry">
            <mxPoint x="640" y="665" as="sourcePoint" />
            <mxPoint x="640" y="650" as="targetPoint" />
          </mxGeometry>
        </mxCell>
        <mxCell id="j2wSv_mhDDOv_lIF8v3o-24" value="" style="ellipse;html=1;fontSize=11;align=center;fillColor=none;points=[];aspect=fixed;resizable=0;verticalAlign=bottom;labelPosition=center;verticalLabelPosition=top;flipH=1;" parent="1" vertex="1">
          <mxGeometry x="636" y="650" width="8" height="8" as="geometry" />
        </mxCell>
        <mxCell id="j2wSv_mhDDOv_lIF8v3o-26" value="WS soap" style="html=1;rounded=0;" parent="1" vertex="1">
          <mxGeometry x="240" y="680" width="80" height="55" as="geometry" />
        </mxCell>
        <mxCell id="j2wSv_mhDDOv_lIF8v3o-27" value="" style="endArrow=none;html=1;rounded=0;align=center;verticalAlign=top;endFill=0;labelBackgroundColor=none;endSize=2;" parent="1" source="j2wSv_mhDDOv_lIF8v3o-29" edge="1">
          <mxGeometry relative="1" as="geometry">
            <mxPoint x="280" y="650" as="targetPoint" />
          </mxGeometry>
        </mxCell>
        <mxCell id="j2wSv_mhDDOv_lIF8v3o-28" value="" style="endArrow=none;html=1;rounded=0;align=center;verticalAlign=top;endFill=0;labelBackgroundColor=none;endSize=2;" parent="1" source="j2wSv_mhDDOv_lIF8v3o-26" target="j2wSv_mhDDOv_lIF8v3o-29" edge="1">
          <mxGeometry relative="1" as="geometry">
            <mxPoint x="280" y="665" as="sourcePoint" />
            <mxPoint x="280" y="650" as="targetPoint" />
          </mxGeometry>
        </mxCell>
        <mxCell id="j2wSv_mhDDOv_lIF8v3o-29" value="" style="ellipse;html=1;fontSize=11;align=center;fillColor=none;points=[];aspect=fixed;resizable=0;verticalAlign=bottom;labelPosition=center;verticalLabelPosition=top;flipH=1;" parent="1" vertex="1">
          <mxGeometry x="276" y="650" width="8" height="8" as="geometry" />
        </mxCell>
        <mxCell id="j2wSv_mhDDOv_lIF8v3o-30" value="DB proc" style="html=1;rounded=0;" parent="1" vertex="1">
          <mxGeometry x="130" y="680" width="80" height="55" as="geometry" />
        </mxCell>
        <mxCell id="j2wSv_mhDDOv_lIF8v3o-31" value="" style="endArrow=none;html=1;rounded=0;align=center;verticalAlign=top;endFill=0;labelBackgroundColor=none;endSize=2;" parent="1" source="j2wSv_mhDDOv_lIF8v3o-33" edge="1">
          <mxGeometry relative="1" as="geometry">
            <mxPoint x="170" y="650" as="targetPoint" />
          </mxGeometry>
        </mxCell>
        <mxCell id="j2wSv_mhDDOv_lIF8v3o-32" value="" style="endArrow=none;html=1;rounded=0;align=center;verticalAlign=top;endFill=0;labelBackgroundColor=none;endSize=2;" parent="1" source="j2wSv_mhDDOv_lIF8v3o-30" target="j2wSv_mhDDOv_lIF8v3o-33" edge="1">
          <mxGeometry relative="1" as="geometry">
            <mxPoint x="170" y="665" as="sourcePoint" />
            <mxPoint x="170" y="650" as="targetPoint" />
          </mxGeometry>
        </mxCell>
        <mxCell id="j2wSv_mhDDOv_lIF8v3o-33" value="" style="ellipse;html=1;fontSize=11;align=center;fillColor=none;points=[];aspect=fixed;resizable=0;verticalAlign=bottom;labelPosition=center;verticalLabelPosition=top;flipH=1;" parent="1" vertex="1">
          <mxGeometry x="166" y="650" width="8" height="8" as="geometry" />
        </mxCell>
        <mxCell id="j2wSv_mhDDOv_lIF8v3o-34" value="Other" style="html=1;rounded=0;" parent="1" vertex="1">
          <mxGeometry x="460" y="680" width="80" height="55" as="geometry" />
        </mxCell>
        <mxCell id="j2wSv_mhDDOv_lIF8v3o-35" value="" style="endArrow=none;html=1;rounded=0;align=center;verticalAlign=top;endFill=0;labelBackgroundColor=none;endSize=2;" parent="1" source="j2wSv_mhDDOv_lIF8v3o-37" edge="1">
          <mxGeometry relative="1" as="geometry">
            <mxPoint x="500" y="650" as="targetPoint" />
          </mxGeometry>
        </mxCell>
        <mxCell id="j2wSv_mhDDOv_lIF8v3o-36" value="" style="endArrow=none;html=1;rounded=0;align=center;verticalAlign=top;endFill=0;labelBackgroundColor=none;endSize=2;" parent="1" source="j2wSv_mhDDOv_lIF8v3o-34" target="j2wSv_mhDDOv_lIF8v3o-37" edge="1">
          <mxGeometry relative="1" as="geometry">
            <mxPoint x="500" y="665" as="sourcePoint" />
            <mxPoint x="500" y="650" as="targetPoint" />
          </mxGeometry>
        </mxCell>
        <mxCell id="j2wSv_mhDDOv_lIF8v3o-37" value="" style="ellipse;html=1;fontSize=11;align=center;fillColor=none;points=[];aspect=fixed;resizable=0;verticalAlign=bottom;labelPosition=center;verticalLabelPosition=top;flipH=1;" parent="1" vertex="1">
          <mxGeometry x="496" y="650" width="8" height="8" as="geometry" />
        </mxCell>
        <mxCell id="j2wSv_mhDDOv_lIF8v3o-38" value="MQ" style="html=1;rounded=0;" parent="1" vertex="1">
          <mxGeometry x="350" y="680" width="80" height="55" as="geometry" />
        </mxCell>
        <mxCell id="j2wSv_mhDDOv_lIF8v3o-39" value="" style="endArrow=none;html=1;rounded=0;align=center;verticalAlign=top;endFill=0;labelBackgroundColor=none;endSize=2;" parent="1" source="j2wSv_mhDDOv_lIF8v3o-41" edge="1">
          <mxGeometry relative="1" as="geometry">
            <mxPoint x="390" y="650" as="targetPoint" />
          </mxGeometry>
        </mxCell>
        <mxCell id="j2wSv_mhDDOv_lIF8v3o-40" value="" style="endArrow=none;html=1;rounded=0;align=center;verticalAlign=top;endFill=0;labelBackgroundColor=none;endSize=2;" parent="1" source="j2wSv_mhDDOv_lIF8v3o-38" target="j2wSv_mhDDOv_lIF8v3o-41" edge="1">
          <mxGeometry relative="1" as="geometry">
            <mxPoint x="390" y="665" as="sourcePoint" />
            <mxPoint x="390" y="650" as="targetPoint" />
          </mxGeometry>
        </mxCell>
        <mxCell id="j2wSv_mhDDOv_lIF8v3o-41" value="" style="ellipse;html=1;fontSize=11;align=center;fillColor=none;points=[];aspect=fixed;resizable=0;verticalAlign=bottom;labelPosition=center;verticalLabelPosition=top;flipH=1;" parent="1" vertex="1">
          <mxGeometry x="386" y="650" width="8" height="8" as="geometry" />
        </mxCell>
        <mxCell id="j2wSv_mhDDOv_lIF8v3o-42" value="IMS (Camel)" style="rounded=0;whiteSpace=wrap;html=1;" parent="1" vertex="1">
          <mxGeometry x="130" y="490" width="434" height="60" as="geometry" />
        </mxCell>
        <mxCell id="j2wSv_mhDDOv_lIF8v3o-43" value="Backends" style="text;strokeColor=none;align=center;fillColor=none;html=1;verticalAlign=middle;whiteSpace=wrap;rounded=0;" parent="1" vertex="1">
          <mxGeometry x="10" y="692.5" width="60" height="30" as="geometry" />
        </mxCell>
        <mxCell id="j2wSv_mhDDOv_lIF8v3o-44" value="ESB&lt;br&gt;Orchestration" style="text;strokeColor=none;align=center;fillColor=none;html=1;verticalAlign=middle;whiteSpace=wrap;rounded=0;" parent="1" vertex="1">
          <mxGeometry x="10" y="505" width="60" height="30" as="geometry" />
        </mxCell>
        <mxCell id="j2wSv_mhDDOv_lIF8v3o-45" value="API GW" style="text;strokeColor=none;align=center;fillColor=none;html=1;verticalAlign=middle;whiteSpace=wrap;rounded=0;" parent="1" vertex="1">
          <mxGeometry x="10" y="415" width="60" height="30" as="geometry" />
        </mxCell>
        <mxCell id="j2wSv_mhDDOv_lIF8v3o-46" value="Consumers&lt;br&gt;Front-Ends" style="text;strokeColor=none;align=center;fillColor=none;html=1;verticalAlign=middle;whiteSpace=wrap;rounded=0;" parent="1" vertex="1">
          <mxGeometry x="10" y="300" width="80" height="30" as="geometry" />
        </mxCell>
        <mxCell id="j2wSv_mhDDOv_lIF8v3o-47" value="/rbepi&amp;nbsp; &amp;nbsp; &amp;nbsp;/tif" style="rounded=0;whiteSpace=wrap;html=1;fillColor=#000000;fontColor=#ffffff;" parent="1" vertex="1">
          <mxGeometry x="130" y="430" width="434" height="15" as="geometry" />
        </mxCell>
        <mxCell id="j2wSv_mhDDOv_lIF8v3o-48" value="rbapl" style="rounded=0;whiteSpace=wrap;html=1;fontColor=#FFFFFF;strokeColor=#000000;fillColor=#000000;" parent="1" vertex="1">
          <mxGeometry x="610" y="430" width="190" height="15" as="geometry" />
        </mxCell>
        <mxCell id="j2wSv_mhDDOv_lIF8v3o-49" value="C1" style="rounded=1;whiteSpace=wrap;html=1;" parent="1" vertex="1">
          <mxGeometry x="150" y="290" width="120" height="60" as="geometry" />
        </mxCell>
        <mxCell id="j2wSv_mhDDOv_lIF8v3o-50" value="C2" style="rounded=1;whiteSpace=wrap;html=1;" parent="1" vertex="1">
          <mxGeometry x="310" y="290" width="120" height="60" as="geometry" />
        </mxCell>
        <mxCell id="j2wSv_mhDDOv_lIF8v3o-51" value="C3" style="rounded=1;whiteSpace=wrap;html=1;" parent="1" vertex="1">
          <mxGeometry x="470" y="290" width="120" height="60" as="geometry" />
        </mxCell>
        <mxCell id="j2wSv_mhDDOv_lIF8v3o-52" value="C4" style="rounded=1;whiteSpace=wrap;html=1;" parent="1" vertex="1">
          <mxGeometry x="636" y="290" width="120" height="60" as="geometry" />
        </mxCell>
        <mxCell id="j2wSv_mhDDOv_lIF8v3o-53" value="" style="endArrow=classic;startArrow=classic;html=1;rounded=0;entryX=0.75;entryY=1;entryDx=0;entryDy=0;" parent="1" target="j2wSv_mhDDOv_lIF8v3o-48" edge="1">
          <mxGeometry width="50" height="50" relative="1" as="geometry">
            <mxPoint x="750" y="650" as="sourcePoint" />
            <mxPoint x="800" y="600" as="targetPoint" />
          </mxGeometry>
        </mxCell>
        <mxCell id="j2wSv_mhDDOv_lIF8v3o-54" value="" style="endArrow=classic;startArrow=classic;html=1;rounded=0;entryX=0.864;entryY=1.033;entryDx=0;entryDy=0;exitX=0;exitY=0.125;exitDx=0;exitDy=0;exitPerimeter=0;entryPerimeter=0;" parent="1" edge="1">
          <mxGeometry width="50" height="50" relative="1" as="geometry">
            <mxPoint x="389.5" y="650" as="sourcePoint" />
            <mxPoint x="390.4760000000001" y="550.98" as="targetPoint" />
          </mxGeometry>
        </mxCell>
        <mxCell id="j2wSv_mhDDOv_lIF8v3o-55" value="" style="endArrow=classic;startArrow=classic;html=1;rounded=0;entryX=0.864;entryY=1.033;entryDx=0;entryDy=0;exitX=0;exitY=0.125;exitDx=0;exitDy=0;exitPerimeter=0;entryPerimeter=0;" parent="1" edge="1">
          <mxGeometry width="50" height="50" relative="1" as="geometry">
            <mxPoint x="501" y="649.02" as="sourcePoint" />
            <mxPoint x="501.9760000000001" y="550" as="targetPoint" />
          </mxGeometry>
        </mxCell>
        <mxCell id="j2wSv_mhDDOv_lIF8v3o-56" value="" style="endArrow=classic;startArrow=classic;html=1;rounded=0;entryX=0.864;entryY=1.033;entryDx=0;entryDy=0;exitX=0;exitY=0.125;exitDx=0;exitDy=0;exitPerimeter=0;entryPerimeter=0;" parent="1" edge="1">
          <mxGeometry width="50" height="50" relative="1" as="geometry">
            <mxPoint x="279.5" y="650" as="sourcePoint" />
            <mxPoint x="280.4760000000001" y="550.98" as="targetPoint" />
          </mxGeometry>
        </mxCell>
        <mxCell id="j2wSv_mhDDOv_lIF8v3o-57" value="" style="endArrow=classic;startArrow=classic;html=1;rounded=0;entryX=0.864;entryY=1.033;entryDx=0;entryDy=0;exitX=0;exitY=0.125;exitDx=0;exitDy=0;exitPerimeter=0;entryPerimeter=0;" parent="1" edge="1">
          <mxGeometry width="50" height="50" relative="1" as="geometry">
            <mxPoint x="169.5" y="650" as="sourcePoint" />
            <mxPoint x="170.4760000000001" y="550.98" as="targetPoint" />
          </mxGeometry>
        </mxCell>
        <mxCell id="j2wSv_mhDDOv_lIF8v3o-58" value="" style="endArrow=classic;startArrow=classic;html=1;rounded=0;entryX=0.5;entryY=1;entryDx=0;entryDy=0;exitX=0.25;exitY=0;exitDx=0;exitDy=0;fillColor=#0050ef;strokeColor=#001DBC;" parent="1" source="j2wSv_mhDDOv_lIF8v3o-47" target="j2wSv_mhDDOv_lIF8v3o-49" edge="1">
          <mxGeometry width="50" height="50" relative="1" as="geometry">
            <mxPoint x="390" y="560" as="sourcePoint" />
            <mxPoint x="440" y="510" as="targetPoint" />
          </mxGeometry>
        </mxCell>
        <mxCell id="j2wSv_mhDDOv_lIF8v3o-59" value="" style="endArrow=classic;startArrow=classic;html=1;rounded=0;entryX=0.5;entryY=1;entryDx=0;entryDy=0;exitX=0.5;exitY=0;exitDx=0;exitDy=0;fillColor=#0050ef;strokeColor=#001DBC;" parent="1" source="j2wSv_mhDDOv_lIF8v3o-47" target="j2wSv_mhDDOv_lIF8v3o-50" edge="1">
          <mxGeometry width="50" height="50" relative="1" as="geometry">
            <mxPoint x="390" y="560" as="sourcePoint" />
            <mxPoint x="440" y="510" as="targetPoint" />
          </mxGeometry>
        </mxCell>
        <mxCell id="j2wSv_mhDDOv_lIF8v3o-60" value="" style="endArrow=classic;startArrow=classic;html=1;rounded=0;entryX=0.5;entryY=1;entryDx=0;entryDy=0;exitX=0.75;exitY=0;exitDx=0;exitDy=0;fillColor=#0050ef;strokeColor=#001DBC;" parent="1" source="j2wSv_mhDDOv_lIF8v3o-47" target="j2wSv_mhDDOv_lIF8v3o-51" edge="1">
          <mxGeometry width="50" height="50" relative="1" as="geometry">
            <mxPoint x="357" y="440" as="sourcePoint" />
            <mxPoint x="380" y="360" as="targetPoint" />
          </mxGeometry>
        </mxCell>
        <mxCell id="j2wSv_mhDDOv_lIF8v3o-61" value="" style="endArrow=classic;startArrow=classic;html=1;rounded=0;entryX=0.75;entryY=1;entryDx=0;entryDy=0;exitX=0.25;exitY=0;exitDx=0;exitDy=0;fillColor=#0050ef;strokeColor=#001DBC;" parent="1" source="j2wSv_mhDDOv_lIF8v3o-48" target="j2wSv_mhDDOv_lIF8v3o-50" edge="1">
          <mxGeometry width="50" height="50" relative="1" as="geometry">
            <mxPoint x="357" y="440" as="sourcePoint" />
            <mxPoint x="380" y="360" as="targetPoint" />
          </mxGeometry>
        </mxCell>
        <mxCell id="j2wSv_mhDDOv_lIF8v3o-62" value="" style="endArrow=classic;startArrow=classic;html=1;rounded=0;entryX=0.5;entryY=1;entryDx=0;entryDy=0;exitX=0.75;exitY=0;exitDx=0;exitDy=0;fillColor=#0050ef;strokeColor=#001DBC;" parent="1" source="j2wSv_mhDDOv_lIF8v3o-48" target="j2wSv_mhDDOv_lIF8v3o-52" edge="1">
          <mxGeometry width="50" height="50" relative="1" as="geometry">
            <mxPoint x="644" y="415" as="sourcePoint" />
            <mxPoint x="694" y="365" as="targetPoint" />
          </mxGeometry>
        </mxCell>
        <mxCell id="j2wSv_mhDDOv_lIF8v3o-64" value="" style="endArrow=classic;startArrow=classic;html=1;rounded=0;entryX=0.7;entryY=1.033;entryDx=0;entryDy=0;entryPerimeter=0;exitX=0.468;exitY=0.067;exitDx=0;exitDy=0;exitPerimeter=0;fillColor=#0050ef;strokeColor=#001DBC;" parent="1" source="j2wSv_mhDDOv_lIF8v3o-48" target="j2wSv_mhDDOv_lIF8v3o-51" edge="1">
          <mxGeometry width="50" height="50" relative="1" as="geometry">
            <mxPoint x="530" y="410" as="sourcePoint" />
            <mxPoint x="580" y="360" as="targetPoint" />
          </mxGeometry>
        </mxCell>
        <mxCell id="j2wSv_mhDDOv_lIF8v3o-65" value="" style="endArrow=classic;startArrow=classic;html=1;rounded=0;entryX=0.25;entryY=1;entryDx=0;entryDy=0;exitX=0.25;exitY=0;exitDx=0;exitDy=0;" parent="1" source="j2wSv_mhDDOv_lIF8v3o-42" target="j2wSv_mhDDOv_lIF8v3o-47" edge="1">
          <mxGeometry width="50" height="50" relative="1" as="geometry">
            <mxPoint x="390" y="560" as="sourcePoint" />
            <mxPoint x="440" y="510" as="targetPoint" />
          </mxGeometry>
        </mxCell>
        <mxCell id="j2wSv_mhDDOv_lIF8v3o-66" value="" style="endArrow=classic;startArrow=classic;html=1;rounded=0;entryX=0.415;entryY=0.933;entryDx=0;entryDy=0;exitX=0.415;exitY=0;exitDx=0;exitDy=0;entryPerimeter=0;exitPerimeter=0;" parent="1" source="j2wSv_mhDDOv_lIF8v3o-42" target="j2wSv_mhDDOv_lIF8v3o-47" edge="1">
          <mxGeometry width="50" height="50" relative="1" as="geometry">
            <mxPoint x="249" y="500" as="sourcePoint" />
            <mxPoint x="249" y="455" as="targetPoint" />
          </mxGeometry>
        </mxCell>
        <mxCell id="j2wSv_mhDDOv_lIF8v3o-67" value="" style="endArrow=classic;startArrow=classic;html=1;rounded=0;entryX=0.415;entryY=0.933;entryDx=0;entryDy=0;exitX=0.415;exitY=0;exitDx=0;exitDy=0;entryPerimeter=0;exitPerimeter=0;" parent="1" edge="1">
          <mxGeometry width="50" height="50" relative="1" as="geometry">
            <mxPoint x="389.5" y="490" as="sourcePoint" />
            <mxPoint x="389.5" y="444" as="targetPoint" />
          </mxGeometry>
        </mxCell>
        <mxCell id="j2wSv_mhDDOv_lIF8v3o-68" value="" style="endArrow=classic;startArrow=classic;html=1;rounded=0;entryX=0.415;entryY=0.933;entryDx=0;entryDy=0;exitX=0.415;exitY=0;exitDx=0;exitDy=0;entryPerimeter=0;exitPerimeter=0;" parent="1" edge="1">
          <mxGeometry width="50" height="50" relative="1" as="geometry">
            <mxPoint x="450" y="490" as="sourcePoint" />
            <mxPoint x="450" y="444" as="targetPoint" />
          </mxGeometry>
        </mxCell>
        <mxCell id="j2wSv_mhDDOv_lIF8v3o-69" value="" style="endArrow=classic;startArrow=classic;html=1;rounded=0;entryX=0.415;entryY=0.933;entryDx=0;entryDy=0;exitX=0.415;exitY=0;exitDx=0;exitDy=0;entryPerimeter=0;exitPerimeter=0;" parent="1" edge="1">
          <mxGeometry width="50" height="50" relative="1" as="geometry">
            <mxPoint x="169.5" y="490" as="sourcePoint" />
            <mxPoint x="169.5" y="444" as="targetPoint" />
          </mxGeometry>
        </mxCell>
        <mxCell id="j2wSv_mhDDOv_lIF8v3o-70" value="" style="endArrow=classic;startArrow=classic;html=1;rounded=0;entryX=0.415;entryY=0.933;entryDx=0;entryDy=0;exitX=0.415;exitY=0;exitDx=0;exitDy=0;entryPerimeter=0;exitPerimeter=0;" parent="1" edge="1">
          <mxGeometry width="50" height="50" relative="1" as="geometry">
            <mxPoint x="520" y="491" as="sourcePoint" />
            <mxPoint x="520" y="445" as="targetPoint" />
          </mxGeometry>
        </mxCell>
        <mxCell id="j2wSv_mhDDOv_lIF8v3o-71" value="" style="endArrow=classic;startArrow=classic;html=1;rounded=0;exitX=0.912;exitY=1;exitDx=0;exitDy=0;exitPerimeter=0;entryX=0.375;entryY=0.125;entryDx=0;entryDy=0;entryPerimeter=0;" parent="1" source="j2wSv_mhDDOv_lIF8v3o-42" target="j2wSv_mhDDOv_lIF8v3o-24" edge="1">
          <mxGeometry width="50" height="50" relative="1" as="geometry">
            <mxPoint x="390" y="560" as="sourcePoint" />
            <mxPoint x="640" y="620" as="targetPoint" />
          </mxGeometry>
        </mxCell>
        <mxCell id="j2wSv_mhDDOv_lIF8v3o-72" value="" style="endArrow=classic;startArrow=classic;html=1;rounded=0;entryX=0.375;entryY=-0.375;entryDx=0;entryDy=0;entryPerimeter=0;" parent="1" target="j2wSv_mhDDOv_lIF8v3o-24" edge="1">
          <mxGeometry width="50" height="50" relative="1" as="geometry">
            <mxPoint x="641" y="450" as="sourcePoint" />
            <mxPoint x="695" y="621" as="targetPoint" />
          </mxGeometry>
        </mxCell>
        <mxCell id="KB6czbbI8LAYtixq4GJ9-1" value="&lt;b&gt;&lt;font style=&quot;font-size: 14px;&quot;&gt;https&lt;/font&gt;&lt;/b&gt;" style="text;html=1;align=center;verticalAlign=middle;whiteSpace=wrap;rounded=0;" vertex="1" parent="1">
          <mxGeometry x="10" y="370" width="60" height="30" as="geometry" />
        </mxCell>
        <mxCell id="KB6czbbI8LAYtixq4GJ9-2" value="&lt;b&gt;&lt;font style=&quot;font-size: 14px;&quot;&gt;https&lt;/font&gt;&lt;/b&gt;" style="text;html=1;align=center;verticalAlign=middle;whiteSpace=wrap;rounded=0;" vertex="1" parent="1">
          <mxGeometry x="10" y="460" width="60" height="30" as="geometry" />
        </mxCell>
      </root>
    </mxGraphModel>
  </diagram>
</mxfile>
